<svg width="605" height="75" viewBox="0 0 605 75" fill="none" xmlns="http://www.w3.org/2000/svg">
<rect y="7" width="79" height="12" fill="#1A56DB"/>
<rect y="63" width="79" height="12" fill="#1A56DB"/>
<rect y="37" width="79" height="12" fill="#1A56DB"/>
<path d="M95 74.016V6.816H123.032C127.32 6.816 130.936 7.456 133.88 8.736C136.824 10.016 139.032 11.936 140.504 14.496C142.04 16.992 142.808 20.064 142.808 23.712C142.808 27.36 141.784 30.464 139.736 33.024C137.752 35.584 134.968 37.344 131.384 38.304V36.384C134.392 37.024 137.016 38.176 139.256 39.84C141.496 41.44 143.224 43.456 144.44 45.888C145.72 48.32 146.36 51.104 146.36 54.24C146.36 57.44 145.848 60.288 144.824 62.784C143.864 65.216 142.392 67.264 140.408 68.928C138.488 70.592 136.152 71.872 133.4 72.768C130.648 73.6 127.512 74.016 123.992 74.016H95ZM105.368 64.032H123.416C126.04 64.032 128.248 63.648 130.04 62.88C131.896 62.112 133.304 60.992 134.264 59.52C135.288 57.984 135.8 56.16 135.8 54.048C135.8 52.064 135.256 50.368 134.168 48.96C133.144 47.552 131.672 46.496 129.752 45.792C127.832 45.024 125.56 44.64 122.936 44.64H105.368V64.032ZM105.368 34.656H122.456C124.376 34.656 126.072 34.272 127.544 33.504C129.08 32.736 130.264 31.68 131.096 30.336C131.992 28.992 132.44 27.456 132.44 25.728C132.44 22.848 131.48 20.64 129.56 19.104C127.64 17.568 124.888 16.8 121.304 16.8H105.368V34.656ZM170.426 74.976C166.266 74.976 162.458 73.824 159.002 71.52C155.61 69.216 152.89 66.08 150.842 62.112C148.794 58.144 147.77 53.664 147.77 48.672C147.77 43.616 148.794 39.136 150.842 35.232C152.954 31.264 155.77 28.16 159.29 25.92C162.874 23.68 166.874 22.56 171.29 22.56C173.914 22.56 176.314 22.944 178.49 23.712C180.666 24.48 182.554 25.568 184.154 26.976C185.818 28.32 187.162 29.888 188.186 31.68C189.274 33.472 189.946 35.392 190.202 37.44L187.994 36.672V23.616H197.978V74.016H187.994V62.016L190.298 61.344C189.914 63.072 189.114 64.768 187.898 66.432C186.746 68.032 185.242 69.472 183.386 70.752C181.594 72.032 179.578 73.056 177.338 73.824C175.162 74.592 172.858 74.976 170.426 74.976ZM173.018 65.856C176.026 65.856 178.682 65.12 180.986 63.648C183.29 62.176 185.082 60.16 186.362 57.6C187.706 54.976 188.378 52 188.378 48.672C188.378 45.408 187.706 42.496 186.362 39.936C185.082 37.376 183.29 35.36 180.986 33.888C178.682 32.416 176.026 31.68 173.018 31.68C170.074 31.68 167.45 32.416 165.146 33.888C162.906 35.36 161.114 37.376 159.77 39.936C158.49 42.496 157.85 45.408 157.85 48.672C157.85 52 158.49 54.976 159.77 57.6C161.114 60.16 162.906 62.176 165.146 63.648C167.45 65.12 170.074 65.856 173.018 65.856ZM205.064 74.016V23.616H214.952V33.984L213.224 35.136C213.864 32.896 215.112 30.848 216.968 28.992C218.824 27.072 221.032 25.536 223.592 24.384C226.152 23.168 228.776 22.56 231.464 22.56C235.304 22.56 238.504 23.328 241.064 24.864C243.624 26.336 245.544 28.608 246.824 31.68C248.104 34.752 248.744 38.624 248.744 43.296V74.016H238.856V43.968C238.856 41.088 238.472 38.72 237.704 36.864C236.936 34.944 235.752 33.568 234.152 32.736C232.552 31.84 230.568 31.456 228.2 31.584C226.28 31.584 224.52 31.904 222.92 32.544C221.32 33.12 219.912 33.952 218.696 35.04C217.544 36.128 216.616 37.408 215.912 38.88C215.272 40.288 214.952 41.824 214.952 43.488V74.016H210.056C209.224 74.016 208.392 74.016 207.56 74.016C206.728 74.016 205.896 74.016 205.064 74.016ZM276.846 74.976C272.174 74.976 267.982 73.824 264.27 71.52C260.622 69.216 257.71 66.08 255.534 62.112C253.422 58.144 252.366 53.696 252.366 48.768C252.366 43.84 253.422 39.392 255.534 35.424C257.71 31.456 260.622 28.32 264.27 26.016C267.982 23.712 272.174 22.56 276.846 22.56C281.326 22.56 285.39 23.488 289.038 25.344C292.75 27.136 295.566 29.6 297.486 32.736L292.014 39.456C290.99 37.984 289.678 36.64 288.078 35.424C286.478 34.208 284.782 33.248 282.99 32.544C281.198 31.84 279.47 31.488 277.806 31.488C274.734 31.488 271.982 32.256 269.55 33.792C267.182 35.264 265.294 37.312 263.886 39.936C262.478 42.56 261.774 45.504 261.774 48.768C261.774 52.032 262.51 54.976 263.982 57.6C265.454 60.16 267.406 62.208 269.838 63.744C272.27 65.28 274.958 66.048 277.902 66.048C279.63 66.048 281.294 65.76 282.894 65.184C284.558 64.608 286.158 63.744 287.694 62.592C289.23 61.44 290.67 60.032 292.014 58.368L297.486 65.088C295.438 67.968 292.494 70.336 288.654 72.192C284.878 74.048 280.942 74.976 276.846 74.976ZM319.485 74.976C315.325 74.976 311.517 73.824 308.061 71.52C304.669 69.216 301.949 66.08 299.901 62.112C297.853 58.144 296.829 53.664 296.829 48.672C296.829 43.616 297.853 39.136 299.901 35.232C302.013 31.264 304.829 28.16 308.349 25.92C311.933 23.68 315.933 22.56 320.349 22.56C322.973 22.56 325.373 22.944 327.549 23.712C329.725 24.48 331.613 25.568 333.213 26.976C334.877 28.32 336.221 29.888 337.245 31.68C338.333 33.472 339.005 35.392 339.261 37.44L337.053 36.672V23.616H347.037V74.016H337.053V62.016L339.357 61.344C338.973 63.072 338.173 64.768 336.957 66.432C335.805 68.032 334.301 69.472 332.445 70.752C330.653 72.032 328.637 73.056 326.397 73.824C324.221 74.592 321.917 74.976 319.485 74.976ZM322.077 65.856C325.085 65.856 327.741 65.12 330.045 63.648C332.349 62.176 334.141 60.16 335.421 57.6C336.765 54.976 337.437 52 337.437 48.672C337.437 45.408 336.765 42.496 335.421 39.936C334.141 37.376 332.349 35.36 330.045 33.888C327.741 32.416 325.085 31.68 322.077 31.68C319.133 31.68 316.509 32.416 314.205 33.888C311.965 35.36 310.173 37.376 308.829 39.936C307.549 42.496 306.909 45.408 306.909 48.672C306.909 52 307.549 54.976 308.829 57.6C310.173 60.16 311.965 62.176 314.205 63.648C316.509 65.12 319.133 65.856 322.077 65.856ZM382.872 74.976C378.136 74.976 373.752 74.112 369.72 72.384C365.752 70.656 362.264 68.256 359.256 65.184C356.312 62.048 354.008 58.4 352.344 54.24C350.744 50.016 349.944 45.408 349.944 40.416C349.944 35.424 350.744 30.848 352.344 26.688C354.008 22.464 356.312 18.816 359.256 15.744C362.264 12.608 365.752 10.176 369.72 8.448C373.752 6.72 378.136 5.856 382.872 5.856C387.608 5.856 391.96 6.72 395.928 8.448C399.96 10.176 403.448 12.608 406.392 15.744C409.4 18.88 411.704 22.56 413.304 26.784C414.968 30.944 415.8 35.488 415.8 40.416C415.8 45.344 414.968 49.92 413.304 54.144C411.704 58.304 409.4 61.952 406.392 65.088C403.448 68.224 399.96 70.656 395.928 72.384C391.96 74.112 387.608 74.976 382.872 74.976ZM382.872 64.896C386.136 64.896 389.112 64.288 391.8 63.072C394.552 61.856 396.92 60.16 398.904 57.984C400.888 55.744 402.424 53.152 403.512 50.208C404.664 47.2 405.24 43.936 405.24 40.416C405.24 36.896 404.664 33.664 403.512 30.72C402.424 27.712 400.888 25.12 398.904 22.944C396.92 20.704 394.552 18.976 391.8 17.76C389.112 16.544 386.136 15.936 382.872 15.936C379.608 15.936 376.6 16.544 373.848 17.76C371.16 18.976 368.792 20.672 366.744 22.848C364.76 25.024 363.224 27.616 362.136 30.624C361.048 33.568 360.504 36.832 360.504 40.416C360.504 43.936 361.048 47.2 362.136 50.208C363.224 53.216 364.76 55.808 366.744 57.984C368.792 60.16 371.16 61.856 373.848 63.072C376.6 64.288 379.608 64.896 382.872 64.896ZM420.621 74.016V23.616H430.509V33.984L428.781 35.136C429.421 32.896 430.669 30.848 432.525 28.992C434.381 27.072 436.589 25.536 439.149 24.384C441.709 23.168 444.333 22.56 447.021 22.56C450.861 22.56 454.061 23.328 456.621 24.864C459.181 26.336 461.101 28.608 462.381 31.68C463.661 34.752 464.301 38.624 464.301 43.296V74.016H454.413V43.968C454.413 41.088 454.029 38.72 453.261 36.864C452.493 34.944 451.309 33.568 449.709 32.736C448.109 31.84 446.125 31.456 443.757 31.584C441.837 31.584 440.077 31.904 438.477 32.544C436.877 33.12 435.469 33.952 434.253 35.04C433.101 36.128 432.173 37.408 431.469 38.88C430.829 40.288 430.509 41.824 430.509 43.488V74.016H425.613C424.781 74.016 423.949 74.016 423.117 74.016C422.285 74.016 421.453 74.016 420.621 74.016ZM471.187 74.016V2.976H481.075V74.016H471.187ZM490.001 74.016V23.616H499.889V74.016H490.001ZM494.801 12.48C492.689 12.48 491.057 11.936 489.905 10.848C488.753 9.76 488.177 8.224 488.177 6.24C488.177 4.384 488.753 2.88 489.905 1.728C491.121 0.576003 492.753 0 494.801 0C496.913 0 498.545 0.544003 499.697 1.632C500.849 2.72 501.425 4.256 501.425 6.24C501.425 8.096 500.817 9.6 499.601 10.752C498.449 11.904 496.849 12.48 494.801 12.48ZM508.368 74.016V23.616H518.256V33.984L516.528 35.136C517.168 32.896 518.416 30.848 520.272 28.992C522.128 27.072 524.336 25.536 526.896 24.384C529.456 23.168 532.08 22.56 534.768 22.56C538.608 22.56 541.808 23.328 544.368 24.864C546.928 26.336 548.848 28.608 550.128 31.68C551.408 34.752 552.048 38.624 552.048 43.296V74.016H542.16V43.968C542.16 41.088 541.776 38.72 541.008 36.864C540.24 34.944 539.056 33.568 537.456 32.736C535.856 31.84 533.872 31.456 531.504 31.584C529.584 31.584 527.824 31.904 526.224 32.544C524.624 33.12 523.216 33.952 522 35.04C520.848 36.128 519.92 37.408 519.216 38.88C518.576 40.288 518.256 41.824 518.256 43.488V74.016H513.36C512.528 74.016 511.696 74.016 510.864 74.016C510.032 74.016 509.2 74.016 508.368 74.016ZM582.261 74.976C577.077 74.976 572.469 73.888 568.437 71.712C564.469 69.472 561.333 66.432 559.029 62.592C556.789 58.752 555.669 54.336 555.669 49.344C555.669 45.376 556.309 41.76 557.589 38.496C558.869 35.232 560.629 32.416 562.869 30.048C565.173 27.616 567.893 25.76 571.029 24.48C574.229 23.136 577.685 22.464 581.397 22.464C584.661 22.464 587.701 23.104 590.517 24.384C593.333 25.6 595.765 27.296 597.813 29.472C599.925 31.648 601.525 34.24 602.613 37.248C603.765 40.192 604.309 43.424 604.245 46.944L604.149 51.168H562.965L560.757 43.296H595.605L594.165 44.928V42.624C593.973 40.512 593.269 38.624 592.053 36.96C590.837 35.296 589.301 33.984 587.445 33.024C585.589 32.064 583.573 31.584 581.397 31.584C577.941 31.584 575.029 32.256 572.661 33.6C570.293 34.88 568.501 36.8 567.285 39.36C566.069 41.856 565.461 44.96 565.461 48.672C565.461 52.192 566.197 55.264 567.669 57.888C569.141 60.448 571.221 62.432 573.909 63.84C576.597 65.248 579.701 65.952 583.221 65.952C585.717 65.952 588.021 65.536 590.133 64.704C592.309 63.872 594.645 62.368 597.141 60.192L602.133 67.2C600.597 68.736 598.709 70.08 596.469 71.232C594.293 72.384 591.957 73.312 589.461 74.016C587.029 74.656 584.629 74.976 582.261 74.976Z" fill="white"/>
</svg>
